<svg width="89" height="88" viewBox="0 0 89 88" fill="none" xmlns="http://www.w3.org/2000/svg">
<path d="M21.2279 11.0927L23.9587 9.46729L65.515 9.9619L66.9044 11.8971L66.6067 14.2293L62.7859 20.7296L59.7094 27.7757L61.1981 29.5124L60.553 30.9514L59.2132 38.6426L61.1981 45.1925V47.1773L59.7094 47.9712L61.7439 54.3723L67.5495 68.1171L66.0609 73.4762L63.2325 76.6022L58.717 78.4878L27.9027 77.9916L23.1391 75.1633L21.1543 71.0448V67.1744L26.0667 55.5135L28.5442 47.9461H27.2029L26.2345 46.7889L28.7702 37.7511L26.7546 30.3388V28.5832L28.7702 28.1281L26.2345 22.7314L21.2279 13.8886V11.0927Z" fill="white"/>
<path d="M38.932 37.8147V38.0226C38.932 39.8934 38.1883 43.09 37.0843 46.8085C36.8672 47.5522 36.0958 48.0696 35.2181 48.0696H28.5571C28.4231 48.0696 28.2891 48.0603 28.1598 48.0372C27.1204 47.8479 26.4229 46.9286 26.6909 45.9909C27.6609 42.6234 28.2938 39.7548 28.2938 38.0272C28.2938 35.8007 27.6794 33.0476 26.7278 30.1005C26.4276 29.172 27.0881 28.2528 28.0997 28.031C28.2522 27.9987 28.4092 27.9802 28.5755 27.9802H35.2135C36.068 27.9802 36.8164 28.4699 37.0612 29.1859C38.1467 32.3917 38.8904 35.3988 38.932 37.8193V37.8147Z" stroke="#222222" stroke-width="1.5" stroke-linecap="round" stroke-linejoin="round"/>
<path d="M59.3678 48.0467C59.2847 48.0559 59.1877 48.0652 59.0999 48.0652H52.6929C51.8153 48.0652 51.0438 47.5478 50.8267 46.8041C49.7227 43.0856 48.979 39.889 48.979 38.0182C48.979 37.8935 48.979 37.7687 48.9836 37.6394C49.0529 35.2512 49.792 32.3041 50.8498 29.1768C51.0946 28.4608 51.843 27.9712 52.6975 27.9712H59.0722C59.1923 27.9712 59.3078 27.9804 59.4233 27.9989C60.5088 28.1698 61.2294 29.126 60.9245 30.0915C59.9776 33.0386 59.354 35.7917 59.354 38.0182C59.354 39.7504 59.9868 42.619 60.9569 45.9819C61.2386 46.9565 60.4765 47.9127 59.3678 48.0467V48.0467Z" stroke="#222222" stroke-width="1.5" stroke-linecap="round" stroke-linejoin="round"/>
<path d="M59.6679 48.1896C61.6957 55.7191 64.6567 60.1813 66.6384 65.937C68.6986 71.9374 64.2317 78.1781 57.8663 78.1781H30.2567C23.8913 78.1781 19.4245 71.9328 21.4847 65.937C23.4664 60.1721 26.4366 55.7006 28.4598 48.1665" stroke="#222222" stroke-width="1.5" stroke-linecap="round" stroke-linejoin="round"/>
<path d="M63.3312 62.7173H24.7923C24.298 63.7705 23.8315 64.8329 23.4158 65.96C21.5311 71.0274 25.6145 76.3027 31.4395 76.3027H56.6886C62.5136 76.3027 66.5924 71.0274 64.7124 65.96C64.292 64.8375 63.8254 63.7705 63.3312 62.7173Z" stroke="#222222" stroke-width="1.5" stroke-linecap="round" stroke-linejoin="round"/>
<path d="M28.4043 27.8879C26.2332 20.9589 23.0274 18.4506 21.1427 13.3648C20.5099 11.6464 21.7848 9.81714 23.6233 9.81714H64.4995C66.338 9.81714 67.6175 11.6464 66.9801 13.3648C65.1 18.446 61.9035 20.9404 59.7278 27.8601" stroke="#222222" stroke-width="1.5" stroke-linecap="round" stroke-linejoin="round"/>
<path d="M44.0637 41.6072C45.7679 41.6072 47.1494 40.2257 47.1494 38.5215C47.1494 36.8173 45.7679 35.4358 44.0637 35.4358C42.3595 35.4358 40.978 36.8173 40.978 38.5215C40.978 40.2257 42.3595 41.6072 44.0637 41.6072Z" stroke="#222222" stroke-width="1.5" stroke-linecap="round" stroke-linejoin="round"/>
<path d="M47.145 38.5215H59.2984" stroke="#222222" stroke-width="1.5" stroke-linecap="round" stroke-linejoin="round"/>
<path d="M40.9783 38.5215H28.3584" stroke="#222222" stroke-width="1.5" stroke-linecap="round" stroke-linejoin="round"/>
</svg>
