<svg width="89" height="88" viewBox="0 0 89 88" fill="none" xmlns="http://www.w3.org/2000/svg">
<g clip-path="url(#clip0_1220_8660)">
<path d="M44.0349 78.0707C62.855 78.0707 78.1117 62.814 78.1117 43.9939C78.1117 25.1737 62.855 9.91699 44.0349 9.91699C25.2147 9.91699 9.95801 25.1737 9.95801 43.9939C9.95801 62.814 25.2147 78.0707 44.0349 78.0707Z" fill="white" stroke="#222222" stroke-width="1.5" stroke-miterlimit="10"/>
<path d="M57.5702 28.8323L30.5117 56.9423" stroke="#222222" stroke-width="1.5" stroke-miterlimit="10"/>
<path d="M35.7693 26.5091C35.7693 27.2794 35.4147 27.6585 34.7055 27.6585H28.7754V31.9991C29.5702 31.3877 30.4627 31.082 31.4287 31.082C33.0182 31.082 34.2042 31.5833 34.9623 32.5982C35.7204 33.613 36.1116 34.9213 36.1116 36.5475C36.1116 38.027 35.6592 39.2742 34.7422 40.3257C33.8374 41.365 32.6758 41.8908 31.2575 41.8908C29.5579 41.8908 28.2496 41.2183 27.3326 39.8733C26.9047 39.2253 26.6846 38.5895 26.6846 37.9537C26.6846 37.2689 27.0269 36.9143 27.7239 36.9143C28.2007 36.9143 28.5186 37.1711 28.6654 37.6724C28.7632 38.0392 28.9588 38.4183 29.2645 38.7973C29.7169 39.3475 30.3527 39.6165 31.1719 39.6165C31.9911 39.6165 32.6881 39.3231 33.2383 38.7484C33.7885 38.1737 34.0575 37.4279 34.0575 36.5109C34.0575 35.4716 33.813 34.6768 33.3239 34.151C32.8348 33.613 32.1501 33.3563 31.2575 33.3563C30.7073 33.3563 30.2426 33.4785 29.8514 33.7109C29.4601 33.9432 29.0444 34.2978 28.6164 34.7868C28.3597 35.0436 28.0907 35.1781 27.8217 35.1781C27.516 35.1781 27.2592 35.0558 27.0392 34.8113C26.8191 34.5668 26.7213 34.2488 26.7213 33.882V26.5213C26.7213 25.7877 27.0514 25.4209 27.7116 25.4209H34.7178C35.4269 25.4209 35.7815 25.7877 35.7815 26.5213L35.7693 26.5091Z" fill="#222222"/>
<path d="M49.1948 48.9702V62.9213C49.1948 63.6794 48.8525 64.0462 48.18 64.0462C47.5075 64.0462 47.1162 63.6671 47.1162 62.9213V48.9702C47.1162 48.1877 47.4708 47.7964 48.18 47.7964C48.8891 47.7964 49.1948 48.1877 49.1948 48.9702Z" fill="#222222"/>
<path d="M65.9579 55.9153C65.9579 58.1651 65.3955 60.1214 64.2706 61.7965C63.1457 63.4594 61.7274 64.2908 60.0034 64.2908C58.2793 64.2908 56.8854 63.4594 55.7728 61.7843C54.6601 60.1092 54.0854 58.1528 54.0854 55.9153C54.0854 53.6777 54.6479 51.7336 55.7728 50.0707C56.8977 48.4079 58.3038 47.5764 60.0034 47.5764C61.7029 47.5764 63.1457 48.4079 64.2706 50.0707C65.3955 51.7336 65.9579 53.6777 65.9579 55.9153ZM57.2034 60.2437C57.9003 61.4297 58.8418 62.0288 60.0034 62.0288C61.1649 62.0288 62.1186 61.4297 62.8156 60.2437C63.5125 59.0576 63.8793 57.6148 63.8793 55.9153C63.8793 54.2157 63.5247 52.7974 62.8156 51.5991C62.1064 50.4009 61.1649 49.814 59.9911 49.814C58.8173 49.814 57.9125 50.4131 57.2034 51.5991C56.4942 52.7852 56.1396 54.2279 56.1396 55.9153C56.1396 57.6026 56.4942 59.0576 57.1911 60.2437H57.2034Z" fill="#222222"/>
</g>
<defs>
<clipPath id="clip0_1220_8660">
<rect width="70" height="70" fill="white" transform="translate(9.04102 9)"/>
</clipPath>
</defs>
</svg>
